<svg width="1496" height="1496" viewBox="0 0 1496 1496" fill="none" xmlns="http://www.w3.org/2000/svg">
<path fill-rule="evenodd" clip-rule="evenodd" d="M831.628 681.455C849.821 666.276 870.118 660.501 889.585 661.961C910.35 663.518 929.564 673.252 943.917 687.389C958.266 701.527 968.125 720.438 969.704 740.848C971.296 761.443 964.4 783.013 946.219 801.943C944.558 803.688 942.859 805.408 941.122 807.107C858.659 888.338 749.121 888.553 748 888.553H747.995C747.435 888.553 637.549 888.549 554.873 807.098L554.855 807.078C553.148 805.387 551.468 803.684 549.812 801.972L549.799 801.956C531.61 783.042 524.707 761.477 526.295 740.881C527.868 720.476 537.72 701.563 552.067 687.419C566.412 673.277 585.626 663.536 606.394 661.972C625.859 660.506 646.16 666.274 664.363 681.445C666.32 658.045 676.517 639.834 691.32 627.313C707.107 613.959 727.68 607.447 747.995 607.447C768.312 607.447 788.884 613.959 804.67 627.313C819.474 639.835 829.672 658.05 831.628 681.455ZM751.771 880.318L751.767 880.215H751.773L751.771 880.318ZM744.221 880.318L744.218 880.215H744.225L744.221 880.318ZM809.949 767.522C807.692 767.522 806.911 770.732 808.35 772.432C810.896 775.444 812.43 779.318 812.43 783.546C812.43 793.138 804.538 800.914 794.803 800.914C785.065 800.914 777.172 793.138 777.172 783.546C777.172 783.033 776.493 782.778 776.185 783.194C773.405 786.956 771.528 791.179 770.756 795.614C770.322 798.111 768.262 800.182 765.673 800.182H764.243C760.864 800.182 758.076 797.482 758.575 794.212C761.994 771.802 784.412 755.548 809.949 755.548C835.485 755.548 857.903 771.802 861.321 794.212C861.818 797.482 859.031 800.182 855.654 800.182C852.272 800.182 849.598 797.468 848.862 794.241C845.522 779.552 830.028 767.522 809.949 767.522ZM653.398 783.546C653.398 782.869 652.507 782.506 652.088 783.044C649.116 786.865 647.091 791.193 646.233 795.753C645.727 798.446 643.503 800.687 640.703 800.687H639.654C636.275 800.687 633.488 797.987 633.986 794.717C637.403 772.295 659.824 756.054 685.359 756.054C710.894 756.054 733.315 772.295 736.732 794.717C737.23 797.987 734.442 800.687 731.063 800.687C727.685 800.687 725.009 797.975 724.275 794.747C720.935 780.048 705.441 768.028 685.359 768.028C683.533 768.028 682.865 770.553 684.087 771.879C686.927 774.962 688.657 779.055 688.657 783.546C688.657 793.138 680.764 800.914 671.027 800.914C661.291 800.914 653.398 793.138 653.398 783.546ZM767.608 825.432C769.996 823.092 773.686 821.956 776.652 823.539C779.617 825.126 780.742 828.805 778.605 831.368C771.645 839.707 760.376 844.994 747.948 844.994C735.527 844.994 724.233 839.764 717.264 831.36C715.135 828.793 716.274 825.114 719.245 823.539C722.216 821.964 725.901 823.117 728.286 825.457C732.879 829.971 739.85 833.022 747.948 833.022C756.025 833.022 763.004 829.938 767.608 825.432Z" stroke="#F1FAFA"/>
</svg>
