<svg width="368" height="60" viewBox="0 0 368 60" fill="none" xmlns="http://www.w3.org/2000/svg">
<path d="M9.125 10.5938C9.125 9.507 10.007 8.625 11.0938 8.625H22.9062C23.993 8.625 24.875 9.507 24.875 10.5938V19.0312C24.875 19.5534 24.6676 20.0542 24.2984 20.4234C23.9292 20.7926 23.4284 21 22.9062 21H18.1925L15.2979 23.8946C15.0684 24.1232 14.7765 24.2787 14.4588 24.3416C14.1411 24.4045 13.8118 24.3719 13.5126 24.248C13.2134 24.1241 12.9576 23.9144 12.7774 23.6453C12.5972 23.3762 12.5007 23.0597 12.5 22.7359V21H11.0938C10.5716 21 10.0709 20.7926 9.70163 20.4234C9.33242 20.0542 9.125 19.5534 9.125 19.0312V10.5938ZM11.0938 10.3125C11.0192 10.3125 10.9476 10.3421 10.8949 10.3949C10.8421 10.4476 10.8125 10.5192 10.8125 10.5938V19.0312C10.8125 19.1865 10.9385 19.3125 11.0938 19.3125H13.3438C13.5675 19.3125 13.7821 19.4014 13.9404 19.5596C14.0986 19.7179 14.1875 19.9325 14.1875 20.1562V22.62L17.2475 19.56C17.3257 19.4816 17.4187 19.4194 17.521 19.3769C17.6233 19.3344 17.733 19.3125 17.8438 19.3125H22.9062C22.9808 19.3125 23.0524 19.2829 23.1051 19.2301C23.1579 19.1774 23.1875 19.1058 23.1875 19.0312V10.5938C23.1875 10.5192 23.1579 10.4476 23.1051 10.3949C23.0524 10.3421 22.9808 10.3125 22.9062 10.3125H11.0938Z" fill="#9FA3AF"/>
<path d="M54.9181 16.5056C55.0282 16.4924 55.1398 16.5011 55.2465 16.531C55.3533 16.561 55.4531 16.6117 55.5402 16.6802C55.6273 16.7487 55.7001 16.8338 55.7543 16.9304C55.8086 17.0271 55.8433 17.1335 55.8564 17.2436C55.9998 18.4294 56.4832 19.5483 57.2485 20.4653C58.0138 21.3823 59.0281 22.0583 60.169 22.4115C61.3099 22.7648 62.5287 22.7803 63.6783 22.4562C64.8279 22.132 65.859 21.4821 66.6474 20.5849L65.2929 19.2304C65.2534 19.191 65.2266 19.1409 65.2157 19.0863C65.2048 19.0316 65.2104 18.975 65.2317 18.9235C65.253 18.8721 65.2891 18.8281 65.3355 18.7972C65.3818 18.7663 65.4363 18.7499 65.492 18.75H69.5938C69.6683 18.75 69.7399 18.7796 69.7926 18.8324C69.8454 18.8851 69.875 18.9567 69.875 19.0312V23.133C69.8751 23.1887 69.8587 23.2432 69.8278 23.2895C69.7969 23.3359 69.7529 23.372 69.7014 23.3933C69.65 23.4146 69.5934 23.4202 69.5387 23.4093C69.4841 23.3984 69.434 23.3716 69.3946 23.3321L67.8421 21.7796C66.8288 22.8996 65.5148 23.7046 64.0568 24.0988C62.5988 24.493 61.0582 24.4597 59.6185 24.0029C58.1789 23.5461 56.901 22.6851 55.9369 21.5224C54.9729 20.3597 54.3635 18.9443 54.1813 17.445C54.1681 17.3349 54.1767 17.2233 54.2066 17.1166C54.2366 17.0099 54.2873 16.9101 54.3558 16.8229C54.4244 16.7358 54.5094 16.663 54.6061 16.6088C54.7028 16.5545 54.8092 16.5199 54.9193 16.5068L54.9181 16.5056ZM62 10.3125C61.1203 10.3116 60.2505 10.4987 59.449 10.8613C58.6475 11.224 57.9327 11.7537 57.3526 12.4151L58.7071 13.7696C58.7466 13.809 58.7734 13.8591 58.7843 13.9137C58.7952 13.9684 58.7897 14.025 58.7683 14.0764C58.747 14.1279 58.7109 14.1719 58.6645 14.2028C58.6182 14.2337 58.5637 14.2501 58.508 14.25H54.4063C54.3317 14.25 54.2601 14.2204 54.2074 14.1676C54.1546 14.1149 54.125 14.0433 54.125 13.9688V9.867C54.1249 9.8113 54.1413 9.75682 54.1722 9.71048C54.2031 9.66414 54.2471 9.62801 54.2986 9.60668C54.35 9.58535 54.4066 9.57978 54.4613 9.59068C54.5159 9.60157 54.566 9.62844 54.6054 9.66787L56.1579 11.2204C57.1712 10.1004 58.4852 9.29536 59.9432 8.90118C61.4012 8.50699 62.9418 8.54029 64.3815 8.99708C65.8211 9.45388 67.0991 10.3149 68.0631 11.4776C69.0271 12.6403 69.6365 14.0557 69.8187 15.555C69.8453 15.7773 69.7825 16.001 69.6441 16.177C69.5057 16.3529 69.303 16.4667 69.0807 16.4932C68.8585 16.5198 68.6347 16.457 68.4588 16.3186C68.2828 16.1802 68.1691 15.9775 68.1425 15.7552C67.9605 14.2542 67.2352 12.8717 66.1035 11.8689C64.9718 10.8662 63.5121 10.3125 62 10.3125Z" fill="#9FA3AF"/>
<path d="M109.63 10.6496C109.247 10.245 108.792 9.92412 108.292 9.70517C107.791 9.48623 107.254 9.37354 106.713 9.37354C106.171 9.37354 105.634 9.48623 105.134 9.70517C104.633 9.92412 104.178 10.245 103.795 10.6496L103 11.4887L102.205 10.6496C101.431 9.83281 100.382 9.37396 99.2876 9.37396C98.1933 9.37396 97.1439 9.83281 96.3701 10.6496C95.5963 11.4663 95.1616 12.5741 95.1616 13.7291C95.1616 14.8842 95.5963 15.992 96.3701 16.8087L97.1651 17.6479L103 23.8071L108.835 17.6479L109.63 16.8087C110.013 16.4044 110.317 15.9243 110.525 15.3959C110.732 14.8675 110.839 14.3011 110.839 13.7291C110.839 13.1572 110.732 12.5908 110.525 12.0624C110.317 11.534 110.013 11.0539 109.63 10.6496Z" stroke="#9FA3AF" stroke-width="2" stroke-linecap="round" stroke-linejoin="round"/>
<path d="M252.938 11.1562C252.938 10.0695 253.819 9.1875 254.906 9.1875H257.719C258.806 9.1875 259.688 10.0695 259.688 11.1562V13.9688C259.688 14.4909 259.48 14.9917 259.111 15.3609C258.742 15.7301 258.241 15.9375 257.719 15.9375H254.906C254.384 15.9375 253.883 15.7301 253.514 15.3609C253.145 14.9917 252.938 14.4909 252.938 13.9688V11.1562ZM260.812 11.1562C260.812 10.0695 261.694 9.1875 262.781 9.1875H265.594C266.681 9.1875 267.562 10.0695 267.562 11.1562V13.9688C267.562 14.4909 267.355 14.9917 266.986 15.3609C266.617 15.7301 266.116 15.9375 265.594 15.9375H262.781C262.259 15.9375 261.758 15.7301 261.389 15.3609C261.02 14.9917 260.812 14.4909 260.812 13.9688V11.1562ZM252.938 19.0312C252.938 17.9445 253.819 17.0625 254.906 17.0625H257.719C258.806 17.0625 259.688 17.9445 259.688 19.0312V21.8438C259.688 22.3659 259.48 22.8667 259.111 23.2359C258.742 23.6051 258.241 23.8125 257.719 23.8125H254.906C254.384 23.8125 253.883 23.6051 253.514 23.2359C253.145 22.8667 252.938 22.3659 252.938 21.8438V19.0312ZM260.812 19.0312C260.812 17.9445 261.694 17.0625 262.781 17.0625H265.594C266.681 17.0625 267.562 17.9445 267.562 19.0312V21.8438C267.562 22.3659 267.355 22.8667 266.986 23.2359C266.617 23.6051 266.116 23.8125 265.594 23.8125H262.781C262.259 23.8125 261.758 23.6051 261.389 23.2359C261.02 22.8667 260.812 22.3659 260.812 21.8438V19.0312ZM254.906 10.875C254.832 10.875 254.76 10.9046 254.707 10.9574C254.655 11.0101 254.625 11.0817 254.625 11.1562V13.9688C254.625 14.124 254.751 14.25 254.906 14.25H257.719C257.793 14.25 257.865 14.2204 257.918 14.1676C257.97 14.1149 258 14.0433 258 13.9688V11.1562C258 11.0817 257.97 11.0101 257.918 10.9574C257.865 10.9046 257.793 10.875 257.719 10.875H254.906ZM262.781 10.875C262.707 10.875 262.635 10.9046 262.582 10.9574C262.53 11.0101 262.5 11.0817 262.5 11.1562V13.9688C262.5 14.124 262.626 14.25 262.781 14.25H265.594C265.668 14.25 265.74 14.2204 265.793 14.1676C265.845 14.1149 265.875 14.0433 265.875 13.9688V11.1562C265.875 11.0817 265.845 11.0101 265.793 10.9574C265.74 10.9046 265.668 10.875 265.594 10.875H262.781ZM254.906 18.75C254.832 18.75 254.76 18.7796 254.707 18.8324C254.655 18.8851 254.625 18.9567 254.625 19.0312V21.8438C254.625 21.999 254.751 22.125 254.906 22.125H257.719C257.793 22.125 257.865 22.0954 257.918 22.0426C257.97 21.9899 258 21.9183 258 21.8438V19.0312C258 18.9567 257.97 18.8851 257.918 18.8324C257.865 18.7796 257.793 18.75 257.719 18.75H254.906ZM262.781 18.75C262.707 18.75 262.635 18.7796 262.582 18.8324C262.53 18.8851 262.5 18.9567 262.5 19.0312V21.8438C262.5 21.999 262.626 22.125 262.781 22.125H265.594C265.668 22.125 265.74 22.0954 265.793 22.0426C265.845 21.9899 265.875 21.9183 265.875 21.8438V19.0312C265.875 18.9567 265.845 18.8851 265.793 18.8324C265.74 18.7796 265.668 18.75 265.594 18.75H262.781Z" fill="#9FA3AF"/>
<path d="M300.58 23.6025L304.823 20.1083L305.3 19.7157L305.777 20.1083L310.022 23.6039C310.035 23.6152 310.052 23.6223 310.07 23.6245C310.087 23.6267 310.105 23.6239 310.121 23.6163C310.137 23.6087 310.151 23.5967 310.16 23.5817C310.17 23.5667 310.175 23.549 310.175 23.5312V10.5938C310.175 9.92121 309.629 9.375 308.956 9.375H301.644C300.971 9.375 300.425 9.92121 300.425 10.5938V23.5298C300.425 23.5476 300.43 23.565 300.44 23.58C300.449 23.5952 300.463 23.6073 300.479 23.6149C300.496 23.6226 300.514 23.6255 300.532 23.6233C300.549 23.6211 300.566 23.6137 300.58 23.6025ZM300.58 23.6025C300.58 23.6026 300.58 23.6024 300.58 23.6025Z" stroke="#9FA3AF" stroke-width="1.5"/>
<g clip-path="url(#clip0_249_360)">
<path d="M345.569 14.8125C345.494 14.8125 345.423 14.8421 345.37 14.8948C345.317 14.9476 345.288 15.0191 345.288 15.0937V22.4062C345.288 22.5615 345.414 22.6875 345.569 22.6875H355.131C355.206 22.6875 355.277 22.6579 355.33 22.6051C355.383 22.5524 355.413 22.4808 355.413 22.4062V15.0937C355.413 15.0191 355.383 14.9476 355.33 14.8948C355.277 14.8421 355.206 14.8125 355.131 14.8125H354.006C353.783 14.8125 353.568 14.7236 353.41 14.5653C353.251 14.4071 353.163 14.1925 353.163 13.9687C353.163 13.7449 353.251 13.5303 353.41 13.3721C353.568 13.2138 353.783 13.125 354.006 13.125H355.131C356.218 13.125 357.1 14.007 357.1 15.0937V22.4062C357.1 22.9284 356.893 23.4291 356.523 23.7984C356.154 24.1676 355.653 24.375 355.131 24.375H345.569C345.047 24.375 344.546 24.1676 344.177 23.7984C343.808 23.4291 343.6 22.9284 343.6 22.4062V15.0937C343.6 14.007 344.482 13.125 345.569 13.125H346.694C346.918 13.125 347.132 13.2138 347.29 13.3721C347.449 13.5303 347.538 13.7449 347.538 13.9687C347.538 14.1925 347.449 14.4071 347.29 14.5653C347.132 14.7236 346.918 14.8125 346.694 14.8125H345.569ZM350.151 7.69908C350.177 7.67289 350.208 7.65211 350.242 7.63793C350.276 7.62375 350.313 7.61646 350.35 7.61646C350.387 7.61646 350.424 7.62375 350.458 7.63793C350.492 7.65211 350.523 7.67289 350.549 7.69908L353.807 10.9571C353.847 10.9964 353.873 11.0466 353.884 11.1012C353.895 11.1558 353.89 11.2124 353.868 11.2639C353.847 11.3154 353.811 11.3593 353.765 11.3902C353.718 11.4211 353.664 11.4376 353.608 11.4375H351.194V17.9062C351.194 18.13 351.105 18.3446 350.947 18.5029C350.788 18.6611 350.574 18.75 350.35 18.75C350.126 18.75 349.912 18.6611 349.753 18.5029C349.595 18.3446 349.506 18.13 349.506 17.9062V11.4375H347.092C347.036 11.4376 346.982 11.4211 346.936 11.3902C346.889 11.3593 346.853 11.3154 346.832 11.2639C346.81 11.2124 346.805 11.1558 346.816 11.1012C346.827 11.0466 346.854 10.9964 346.893 10.9571L350.151 7.69908Z" fill="#9FA3AF"/>
</g>
<path d="M12.3357 49.6303C11.8798 49.6272 11.4347 49.5481 11.0005 49.393C10.5663 49.2348 10.1756 48.979 9.82823 48.6254C9.48088 48.2688 9.20487 47.7958 9.00018 47.2066C8.79549 46.6142 8.6947 45.8808 8.6978 45.0062C8.6978 44.1905 8.78464 43.4633 8.95831 42.8244C9.13198 42.1855 9.38164 41.6459 9.70728 41.2055C10.0329 40.762 10.4252 40.424 10.8842 40.1914C11.3463 39.9588 11.8627 39.8425 12.4333 39.8425C13.0319 39.8425 13.5622 39.9603 14.0243 40.196C14.4895 40.4317 14.8648 40.7543 15.1501 41.1636C15.4354 41.5699 15.6122 42.0289 15.6804 42.5406H13.9825C13.8956 42.1747 13.7173 41.8831 13.4475 41.6661C13.1808 41.4459 12.8427 41.3358 12.4333 41.3358C11.7728 41.3358 11.2641 41.6226 10.9075 42.1964C10.5539 42.7701 10.3756 43.5579 10.3725 44.5596H10.4376C10.5896 44.2867 10.7865 44.0525 11.0284 43.8571C11.2703 43.6618 11.5433 43.5113 11.8472 43.4059C12.1542 43.2973 12.4783 43.2431 12.8195 43.2431C13.3777 43.2431 13.8786 43.3764 14.3221 43.6431C14.7686 43.9099 15.1222 44.2774 15.3827 44.7457C15.6432 45.2109 15.7719 45.7443 15.7688 46.346C15.7719 46.9724 15.6293 47.5353 15.3408 48.0346C15.0524 48.5308 14.6508 48.9216 14.136 49.2069C13.6212 49.4922 13.021 49.6334 12.3357 49.6303ZM12.3263 48.2347C12.6644 48.2347 12.9668 48.1525 13.2335 47.9881C13.5002 47.8237 13.7111 47.602 13.8662 47.3229C14.0212 47.0437 14.0972 46.7305 14.0941 46.3832C14.0972 46.042 14.0228 45.7334 13.8708 45.4574C13.7219 45.1814 13.5157 44.9628 13.2521 44.8015C12.9885 44.6402 12.6877 44.5596 12.3496 44.5596C12.0984 44.5596 11.8643 44.6077 11.6472 44.7038C11.4301 44.7999 11.2409 44.9333 11.0796 45.1039C10.9183 45.2713 10.7912 45.4667 10.6982 45.69C10.6082 45.9102 10.5617 46.1459 10.5586 46.3971C10.5617 46.729 10.6392 47.0344 10.7912 47.3136C10.9432 47.5927 11.1525 47.816 11.4192 47.9835C11.6859 48.1509 11.9883 48.2347 12.3263 48.2347ZM20.8627 49.6814C20.0967 49.6814 19.4392 49.4876 18.8903 49.0999C18.3445 48.7092 17.9242 48.1463 17.6296 47.4113C17.3381 46.6731 17.1923 45.7846 17.1923 44.7457C17.1954 43.7067 17.3427 42.8228 17.6343 42.094C17.9289 41.3621 18.3491 40.8039 18.895 40.4193C19.4439 40.0348 20.0998 39.8425 20.8627 39.8425C21.6257 39.8425 22.2816 40.0348 22.8305 40.4193C23.3795 40.8039 23.7997 41.3621 24.0912 42.094C24.3859 42.8259 24.5332 43.7098 24.5332 44.7457C24.5332 45.7877 24.3859 46.6778 24.0912 47.4159C23.7997 48.1509 23.3795 48.7123 22.8305 49.0999C22.2847 49.4876 21.6288 49.6814 20.8627 49.6814ZM20.8627 48.2254C21.4582 48.2254 21.9281 47.9323 22.2723 47.3461C22.6197 46.7569 22.7933 45.8901 22.7933 44.7457C22.7933 43.9889 22.7142 43.3532 22.5561 42.8384C22.3979 42.3235 22.1746 41.9359 21.8862 41.6754C21.5978 41.4117 21.2566 41.2799 20.8627 41.2799C20.2704 41.2799 19.8021 41.5746 19.4578 42.1638C19.1136 42.75 18.9399 43.6106 18.9368 44.7457C18.9337 45.5055 19.0097 46.1444 19.1648 46.6623C19.3229 47.1802 19.5462 47.571 19.8347 47.8346C20.1231 48.0951 20.4658 48.2254 20.8627 48.2254ZM29.391 49.6303C28.7707 49.6303 28.2156 49.514 27.7256 49.2814C27.2356 49.0457 26.8464 48.7231 26.5579 48.3137C26.2726 47.9044 26.1207 47.4361 26.1021 46.9088H27.7768C27.8078 47.2996 27.9768 47.619 28.2838 47.8672C28.5909 48.1122 28.9599 48.2347 29.391 48.2347C29.7291 48.2347 30.0299 48.1571 30.2935 48.0021C30.5571 47.847 30.7649 47.6315 30.9169 47.3554C31.0688 47.0794 31.1433 46.7646 31.1402 46.4111C31.1433 46.0513 31.0673 45.7319 30.9122 45.4528C30.7571 45.1737 30.5447 44.955 30.2749 44.7968C30.0051 44.6356 29.6949 44.5549 29.3445 44.5549C29.0592 44.5518 28.7785 44.6046 28.5025 44.7131C28.2265 44.8216 28.0078 44.9643 27.8465 45.1411L26.2881 44.8852L26.7859 39.9727H32.3125V41.4148H28.2141L27.9396 43.9409H27.9954C28.1722 43.7331 28.4218 43.561 28.7444 43.4245C29.0669 43.2849 29.4205 43.2152 29.805 43.2152C30.3819 43.2152 30.8967 43.3516 31.3495 43.6245C31.8023 43.8944 32.1589 44.2665 32.4195 44.741C32.68 45.2155 32.8102 45.7583 32.8102 46.3692C32.8102 46.9988 32.6645 47.5601 32.3729 48.0532C32.0845 48.5432 31.6829 48.9294 31.1681 49.2116C30.6563 49.4907 30.064 49.6303 29.391 49.6303Z" fill="#9FA3AF"/>
<path d="M38.7548 49.5V42.3545H39.8155V43.4338H39.8899C40.0202 43.0803 40.2559 42.7934 40.597 42.5732C40.9382 42.353 41.3227 42.2429 41.7507 42.2429C41.8313 42.2429 41.9321 42.2444 42.0531 42.2475C42.174 42.2507 42.2655 42.2553 42.3276 42.2615V43.378C42.2903 43.3687 42.2051 43.3547 42.0717 43.3361C41.9414 43.3144 41.8034 43.3036 41.6577 43.3036C41.3103 43.3036 41.0002 43.3764 40.7273 43.5222C40.4575 43.6649 40.2435 43.8633 40.0853 44.1176C39.9302 44.3689 39.8527 44.6557 39.8527 44.9783V49.5H38.7548ZM46.4074 49.6489C45.7189 49.6489 45.125 49.4969 44.6256 49.193C44.1294 48.8859 43.7464 48.458 43.4766 47.909C43.2099 47.357 43.0765 46.715 43.0765 45.9831C43.0765 45.2512 43.2099 44.6061 43.4766 44.0479C43.7464 43.4865 44.1217 43.0492 44.6024 42.736C45.0862 42.4197 45.6506 42.2615 46.2957 42.2615C46.6679 42.2615 47.0354 42.3235 47.3982 42.4476C47.7611 42.5716 48.0914 42.7732 48.3891 43.0523C48.6868 43.3284 48.9241 43.6943 49.1009 44.1502C49.2776 44.6061 49.366 45.1674 49.366 45.8342V46.2994H43.8581V45.3504H48.2495C48.2495 44.9473 48.1689 44.5875 48.0076 44.2712C47.8495 43.9548 47.6231 43.7052 47.3284 43.5222C47.0369 43.3392 46.6927 43.2477 46.2957 43.2477C45.8584 43.2477 45.4801 43.3563 45.1606 43.5734C44.8443 43.7874 44.6008 44.0665 44.4303 44.4107C44.2597 44.755 44.1744 45.124 44.1744 45.5179V46.1506C44.1744 46.6902 44.2674 47.1476 44.4535 47.5229C44.6427 47.8951 44.9048 48.1788 45.2397 48.3742C45.5746 48.5665 45.9639 48.6626 46.4074 48.6626C46.6958 48.6626 46.9563 48.6223 47.1889 48.5417C47.4246 48.458 47.6277 48.3339 47.7983 48.1695C47.9689 48.0021 48.1007 47.7943 48.1937 47.5462L49.2544 47.8439C49.1427 48.2036 48.9551 48.52 48.6915 48.7929C48.4279 49.0627 48.1022 49.2736 47.7146 49.4256C47.3269 49.5744 46.8912 49.6489 46.4074 49.6489ZM51.0361 52.1795V42.3545H52.0967V43.4896H52.227C52.3076 43.3656 52.4193 43.2074 52.5619 43.0151C52.7077 42.8197 52.9155 42.6461 53.1853 42.4941C53.4582 42.339 53.8273 42.2615 54.2925 42.2615C54.8941 42.2615 55.4245 42.4119 55.8835 42.7127C56.3424 43.0136 56.7007 43.44 56.9581 43.992C57.2155 44.5441 57.3442 45.1954 57.3442 45.9459C57.3442 46.7026 57.2155 47.3585 56.9581 47.9137C56.7007 48.4657 56.344 48.8937 55.8881 49.1976C55.4322 49.4984 54.9065 49.6489 54.3111 49.6489C53.8521 49.6489 53.4846 49.5729 53.2086 49.4209C52.9325 49.2658 52.7201 49.0906 52.5712 48.8952C52.4224 48.6968 52.3076 48.5324 52.227 48.4021H52.1339V52.1795H51.0361ZM52.1153 45.9273C52.1153 46.4669 52.1944 46.943 52.3526 47.3554C52.5108 47.7648 52.7418 48.0858 53.0457 48.3184C53.3497 48.5479 53.7218 48.6626 54.1622 48.6626C54.6212 48.6626 55.0042 48.5417 55.3113 48.2998C55.6214 48.0548 55.854 47.726 56.0091 47.3136C56.1672 46.898 56.2463 46.4359 56.2463 45.9273C56.2463 45.4249 56.1688 44.9721 56.0137 44.5689C55.8617 44.1626 55.6307 43.8416 55.3206 43.6059C55.0135 43.3671 54.6274 43.2477 54.1622 43.2477C53.7156 43.2477 53.3404 43.3609 53.0364 43.5873C52.7325 43.8106 52.503 44.1239 52.3479 44.527C52.1929 44.9271 52.1153 45.3938 52.1153 45.9273ZM60.1168 39.9727V49.5H59.0189V39.9727H60.1168ZM62.1276 49.5V42.3545H63.2255V49.5H62.1276ZM62.6858 41.1636C62.4718 41.1636 62.2873 41.0908 62.1322 40.945C61.9803 40.7992 61.9043 40.624 61.9043 40.4193C61.9043 40.2146 61.9803 40.0394 62.1322 39.8936C62.2873 39.7479 62.4718 39.675 62.6858 39.675C62.8998 39.675 63.0828 39.7479 63.2348 39.8936C63.3898 40.0394 63.4674 40.2146 63.4674 40.4193C63.4674 40.624 63.3898 40.7992 63.2348 40.945C63.0828 41.0908 62.8998 41.1636 62.6858 41.1636ZM68.2322 49.6489C67.5437 49.6489 66.9498 49.4969 66.4504 49.193C65.9542 48.8859 65.5712 48.458 65.3014 47.909C65.0347 47.357 64.9013 46.715 64.9013 45.9831C64.9013 45.2512 65.0347 44.6061 65.3014 44.0479C65.5712 43.4865 65.9465 43.0492 66.4272 42.736C66.911 42.4197 67.4754 42.2615 68.1205 42.2615C68.4927 42.2615 68.8602 42.3235 69.223 42.4476C69.5859 42.5716 69.9162 42.7732 70.2139 43.0523C70.5116 43.3284 70.7489 43.6943 70.9257 44.1502C71.1024 44.6061 71.1908 45.1674 71.1908 45.8342V46.2994H65.6829V45.3504H70.0743C70.0743 44.9473 69.9937 44.5875 69.8324 44.2712C69.6743 43.9548 69.4479 43.7052 69.1532 43.5222C68.8617 43.3392 68.5175 43.2477 68.1205 43.2477C67.6832 43.2477 67.3049 43.3563 66.9854 43.5734C66.6691 43.7874 66.4256 44.0665 66.2551 44.4107C66.0845 44.755 65.9992 45.124 65.9992 45.5179V46.1506C65.9992 46.6902 66.0922 47.1476 66.2783 47.5229C66.4675 47.8951 66.7296 48.1788 67.0645 48.3742C67.3994 48.5665 67.7887 48.6626 68.2322 48.6626C68.5206 48.6626 68.7811 48.6223 69.0137 48.5417C69.2494 48.458 69.4525 48.3339 69.6231 48.1695C69.7937 48.0021 69.9255 47.7943 70.0185 47.5462L71.0792 47.8439C70.9675 48.2036 70.7799 48.52 70.5163 48.7929C70.2527 49.0627 69.927 49.2736 69.5394 49.4256C69.1517 49.5744 68.716 49.6489 68.2322 49.6489ZM77.9222 43.9548L76.936 44.2339C76.874 44.0696 76.7825 43.9099 76.6616 43.7548C76.5437 43.5966 76.3824 43.4664 76.1778 43.364C75.9731 43.2617 75.711 43.2105 75.3916 43.2105C74.9543 43.2105 74.5899 43.3113 74.2984 43.5129C74.0099 43.7114 73.8657 43.9641 73.8657 44.2712C73.8657 44.5441 73.965 44.7596 74.1634 44.9178C74.3619 45.076 74.6721 45.2078 75.0938 45.3132L76.1545 45.5737C76.7934 45.7288 77.2694 45.966 77.5827 46.2855C77.8959 46.6018 78.0525 47.0096 78.0525 47.5089C78.0525 47.9183 77.9347 48.2843 77.699 48.6068C77.4664 48.9294 77.1407 49.1837 76.722 49.3697C76.3034 49.5558 75.8164 49.6489 75.2613 49.6489C74.5325 49.6489 73.9293 49.4907 73.4517 49.1744C72.9741 48.858 72.6717 48.3959 72.5446 47.7881L73.5866 47.5276C73.6858 47.9121 73.8735 48.2005 74.1495 48.3928C74.4286 48.5851 74.793 48.6812 75.2427 48.6812C75.7544 48.6812 76.1607 48.5727 76.4615 48.3556C76.7655 48.1354 76.9174 47.8718 76.9174 47.5648C76.9174 47.3167 76.8306 47.1089 76.6569 46.9414C76.4832 46.7708 76.2165 46.6437 75.8568 46.5599L74.6659 46.2808C74.0115 46.1258 73.5308 45.8854 73.2237 45.5598C72.9198 45.231 72.7678 44.8201 72.7678 44.327C72.7678 43.9238 72.881 43.5672 73.1074 43.257C73.3369 42.9469 73.6486 42.7034 74.0425 42.5267C74.4395 42.3499 74.8892 42.2615 75.3916 42.2615C76.0987 42.2615 76.6538 42.4166 77.057 42.7267C77.4633 43.0368 77.7517 43.4462 77.9222 43.9548Z" fill="#9FA3AF"/>
<path d="M84.5668 46.1861C84.304 46.1861 84.0785 46.092 83.8903 45.9038C83.7021 45.7156 83.608 45.4901 83.608 45.2273C83.608 44.9645 83.7021 44.739 83.8903 44.5508C84.0785 44.3626 84.304 44.2685 84.5668 44.2685C84.8295 44.2685 85.055 44.3626 85.2433 44.5508C85.4315 44.739 85.5256 44.9645 85.5256 45.2273C85.5256 45.4013 85.4812 45.5611 85.3924 45.7067C85.3072 45.8523 85.1918 45.9695 85.0462 46.0582C84.9041 46.1435 84.7443 46.1861 84.5668 46.1861Z" fill="#8B99A4"/>
<path d="M95.6745 47.7322V46.3599L99.7171 39.9727H100.862V41.9266H100.164L97.4423 46.239V46.3134H103.085V47.7322H95.6745ZM100.22 49.5V47.3136L100.238 46.6995V39.9727H101.866V49.5H100.22ZM108.093 49.6814C107.327 49.6814 106.67 49.4876 106.121 49.0999C105.575 48.7092 105.155 48.1463 104.86 47.4113C104.568 46.6731 104.423 45.7846 104.423 44.7457C104.426 43.7067 104.573 42.8228 104.865 42.094C105.159 41.3621 105.579 40.8039 106.125 40.4193C106.674 40.0348 107.33 39.8425 108.093 39.8425C108.856 39.8425 109.512 40.0348 110.061 40.4193C110.61 40.8039 111.03 41.3621 111.322 42.094C111.616 42.8259 111.763 43.7098 111.763 44.7457C111.763 45.7877 111.616 46.6778 111.322 47.4159C111.03 48.1509 110.61 48.7123 110.061 49.0999C109.515 49.4876 108.859 49.6814 108.093 49.6814ZM108.093 48.2254C108.688 48.2254 109.158 47.9323 109.503 47.3461C109.85 46.7569 110.024 45.8901 110.024 44.7457C110.024 43.9889 109.945 43.3532 109.786 42.8384C109.628 42.3235 109.405 41.9359 109.116 41.6754C108.828 41.4117 108.487 41.2799 108.093 41.2799C107.501 41.2799 107.032 41.5746 106.688 42.1638C106.344 42.75 106.17 43.6106 106.167 44.7457C106.164 45.5055 106.24 46.1444 106.395 46.6623C106.553 47.1802 106.777 47.571 107.065 47.8346C107.353 48.0951 107.696 48.2254 108.093 48.2254ZM113.137 47.7322V46.3599L117.18 39.9727H118.324V41.9266H117.626L114.905 46.239V46.3134H120.548V47.7322H113.137ZM117.682 49.5V47.3136L117.701 46.6995V39.9727H119.329V49.5H117.682Z" fill="#9FA3AF"/>
<path d="M127.853 39.9727V49.5H126.755V39.9727H127.853ZM129.864 49.5V42.3545H130.961V49.5H129.864ZM130.422 41.1636C130.208 41.1636 130.023 41.0908 129.868 40.945C129.716 40.7992 129.64 40.624 129.64 40.4193C129.64 40.2146 129.716 40.0394 129.868 39.8936C130.023 39.7479 130.208 39.675 130.422 39.675C130.636 39.675 130.819 39.7479 130.971 39.8936C131.126 40.0394 131.203 40.2146 131.203 40.4193C131.203 40.624 131.126 40.7992 130.971 40.945C130.819 41.0908 130.636 41.1636 130.422 41.1636ZM133.996 46.8949L133.977 45.5365H134.2L137.326 42.3545H138.685L135.354 45.7226H135.261L133.996 46.8949ZM132.972 49.5V39.9727H134.07V49.5H132.972ZM137.513 49.5L134.721 45.9645L135.503 45.2016L138.908 49.5H137.513ZM142.8 49.6489C142.111 49.6489 141.517 49.4969 141.018 49.193C140.522 48.8859 140.139 48.458 139.869 47.909C139.602 47.357 139.469 46.715 139.469 45.9831C139.469 45.2512 139.602 44.6061 139.869 44.0479C140.139 43.4865 140.514 43.0492 140.995 42.736C141.478 42.4197 142.043 42.2615 142.688 42.2615C143.06 42.2615 143.428 42.3235 143.79 42.4476C144.153 42.5716 144.484 42.7732 144.781 43.0523C145.079 43.3284 145.316 43.6943 145.493 44.1502C145.67 44.6061 145.758 45.1674 145.758 45.8342V46.2994H140.25V45.3504H144.642C144.642 44.9473 144.561 44.5875 144.4 44.2712C144.242 43.9548 144.015 43.7052 143.721 43.5222C143.429 43.3392 143.085 43.2477 142.688 43.2477C142.251 43.2477 141.872 43.3563 141.553 43.5734C141.236 43.7874 140.993 44.0665 140.822 44.4107C140.652 44.755 140.567 45.124 140.567 45.5179V46.1506C140.567 46.6902 140.66 47.1476 140.846 47.5229C141.035 47.8951 141.297 48.1788 141.632 48.3742C141.967 48.5665 142.356 48.6626 142.8 48.6626C143.088 48.6626 143.348 48.6223 143.581 48.5417C143.817 48.458 144.02 48.3339 144.19 48.1695C144.361 48.0021 144.493 47.7943 144.586 47.5462L145.647 47.8439C145.535 48.2036 145.347 48.52 145.084 48.7929C144.82 49.0627 144.494 49.2736 144.107 49.4256C143.719 49.5744 143.283 49.6489 142.8 49.6489ZM152.49 43.9548L151.503 44.2339C151.441 44.0696 151.35 43.9099 151.229 43.7548C151.111 43.5966 150.95 43.4664 150.745 43.364C150.54 43.2617 150.278 43.2105 149.959 43.2105C149.522 43.2105 149.157 43.3113 148.866 43.5129C148.577 43.7114 148.433 43.9641 148.433 44.2712C148.433 44.5441 148.532 44.7596 148.731 44.9178C148.929 45.076 149.239 45.2078 149.661 45.3132L150.722 45.5737C151.361 45.7288 151.837 45.966 152.15 46.2855C152.463 46.6018 152.62 47.0096 152.62 47.5089C152.62 47.9183 152.502 48.2843 152.266 48.6068C152.034 48.9294 151.708 49.1837 151.289 49.3697C150.871 49.5558 150.384 49.6489 149.829 49.6489C149.1 49.6489 148.497 49.4907 148.019 49.1744C147.541 48.858 147.239 48.3959 147.112 47.7881L148.154 47.5276C148.253 47.9121 148.441 48.2005 148.717 48.3928C148.996 48.5851 149.36 48.6812 149.81 48.6812C150.322 48.6812 150.728 48.5727 151.029 48.3556C151.333 48.1354 151.485 47.8718 151.485 47.5648C151.485 47.3167 151.398 47.1089 151.224 46.9414C151.051 46.7708 150.784 46.6437 150.424 46.5599L149.233 46.2808C148.579 46.1258 148.098 45.8854 147.791 45.5598C147.487 45.231 147.335 44.8201 147.335 44.327C147.335 43.9238 147.448 43.5672 147.675 43.257C147.904 42.9469 148.216 42.7034 148.61 42.5267C149.007 42.3499 149.457 42.2615 149.959 42.2615C150.666 42.2615 151.221 42.4166 151.624 42.7267C152.031 43.0368 152.319 43.4462 152.49 43.9548Z" fill="#9FA3AF"/>
<defs>
<clipPath id="clip0_249_360">
<rect width="18" height="18" fill="white" transform="translate(341.35 7.5)"/>
</clipPath>
</defs>
</svg>
