<svg width="38" height="38" viewBox="0 0 38 38" fill="none" xmlns="http://www.w3.org/2000/svg">
<path d="M17.0984 35.8629V31.5968H20.3314V35.8629H17.0984ZM17.1175 4.77572V0.586121H20.3506V4.77572H17.1175ZM18.7436 32.0751C16.9963 32.0751 15.4404 31.7626 14.0757 31.1377C12.7111 30.5127 11.6398 29.5817 10.8618 28.3446C10.0838 27.0947 9.67571 25.5388 9.63745 23.6767H12.9662C12.9917 24.8628 13.2723 25.8449 13.8079 26.6228C14.3436 27.4008 15.0514 27.9811 15.9314 28.3637C16.8242 28.7336 17.8126 28.9185 18.8967 28.9185C20.07 28.9185 21.0393 28.74 21.8045 28.3829C22.5697 28.013 23.1373 27.522 23.5071 26.9098C23.8897 26.2849 24.081 25.5898 24.081 24.8246C24.081 23.9573 23.8578 23.2304 23.4115 22.6437C22.9651 22.057 22.2891 21.5341 21.3836 21.075C20.4781 20.6158 19.3239 20.144 17.921 19.6593C16.3905 19.1109 15.0578 18.4796 13.9227 17.7654C12.8004 17.0384 11.9267 16.1648 11.3018 15.1445C10.6769 14.1242 10.3644 12.8998 10.3644 11.4714C10.3644 9.88996 10.7151 8.56357 11.4166 7.49226C12.118 6.40819 13.0937 5.59196 14.3436 5.04355C15.6062 4.49514 17.0665 4.22093 18.7245 4.22093C21.3135 4.22093 23.252 4.85862 24.5402 6.13399C25.8283 7.39661 26.6254 9.23952 26.9315 11.6627H23.5836C23.4689 10.8082 23.2393 10.0621 22.8949 9.42445C22.5633 8.78676 22.0532 8.28937 21.3645 7.93227C20.6758 7.56241 19.7384 7.37748 18.5523 7.37748C17.0729 7.37748 15.8995 7.70907 15.0323 8.37227C14.165 9.03546 13.7314 10.0303 13.7314 11.3566C13.7314 12.1219 13.8781 12.7978 14.1714 13.3845C14.4775 13.9712 15.0387 14.5259 15.8549 15.0488C16.6839 15.5717 17.87 16.1393 19.4132 16.7515C20.561 17.2106 21.6259 17.6506 22.608 18.0715C23.6028 18.4923 24.4636 18.977 25.1906 19.5254C25.9303 20.0738 26.5042 20.7561 26.9124 21.5724C27.3205 22.3759 27.5309 23.3898 27.5437 24.6141C27.5564 26.9608 26.7848 28.791 25.2289 30.1046C23.6857 31.4182 21.5239 32.0751 18.7436 32.0751Z" fill="white"/>
<path d="M23.8546 37.2495H37.5069V0.586121H23.8737V1.62479C25.0288 2.087 26.092 2.74961 27.0127 3.65941C27.1616 3.80564 27.3051 3.95563 27.4433 4.10921H33.9838V33.7265H26.279C25.5198 34.2025 24.7077 34.5787 23.8546 34.8668V37.2495Z" fill="white"/>
<path d="M9.65191 4.10921H4.36659V33.7265H11.3877C11.7773 33.9651 12.1846 34.1818 12.6089 34.3761C12.9263 34.5214 13.2485 34.6533 13.5753 34.7722V37.2495H0.843506V0.586121H13.5945V1.58518C13.374 1.6663 13.1558 1.7536 12.94 1.8473L12.928 1.85257C11.6794 2.40045 10.5755 3.15318 9.65191 4.10921Z" fill="white"/>
</svg>
